<svg xmlns="http://www.w3.org/2000/svg" xmlns:xlink="http://www.w3.org/1999/xlink" width="1200" height="800" viewBox="0 0 1200 800">
  <defs>
    <style>
      .cls-1, .cls-6, .cls-9 {
        fill: none;
      }

      .cls-2 {
        fill: #10162f;
      }

      .cls-3, .cls-7 {
        fill: #3a10e5;
      }

      .cls-4, .cls-5, .cls-8 {
        fill: #fff;
      }

      .cls-4, .cls-6 {
        stroke: #3a10e5;
      }

      .cls-4, .cls-6, .cls-7, .cls-8, .cls-9 {
        stroke-linejoin: round;
      }

      .cls-7, .cls-8, .cls-9 {
        stroke: #fff;
      }

      .cls-8, .cls-9 {
        stroke-width: 3px;
      }

      .cls-10 {
        clip-path: url(#clip-path);
      }

      .cls-11 {
        clip-path: url(#clip-path-3);
      }

      .cls-12 {
        clip-path: url(#clip-path-4);
      }
    </style>
    <clipPath id="clip-path">
      <polygon class="cls-1" points="727.92 571.94 479.19 571.94 427.87 503.91 676.6 503.91 727.92 571.94"/>
    </clipPath>
    <clipPath id="clip-path-3">
      <polygon class="cls-1" points="1074.33 571.94 825.59 571.94 774.27 503.91 1023 503.91 1074.33 571.94"/>
    </clipPath>
    <clipPath id="clip-path-4">
      <path class="cls-1" d="M367,534a14.13,14.13,0,0,1-2-9.86,32.26,32.26,0,0,0,.48-5.51A31.1,31.1,0,0,0,354.3,494.7c.19,2.31.31,4.64.31,7a85.74,85.74,0,0,1-103.78,83.84A39.4,39.4,0,0,0,273,592.35h60.5c21.4,0,39.42-17.5,39.11-38.89A38,38,0,0,0,367,534Z"/>
    </clipPath>
  </defs>
  <g id="bg">
    <rect class="cls-2" width="1200" height="800"/>
  </g>
  <g id="Layer_1" data-name="Layer 1">
    <g>
      <g>
        <g>
          <path class="cls-3" d="M287,521.25c-.48-.17-1-.34-1.5-.5s-1.05-.33-1.61-.49c-1.12-.32-2.31-.63-3.58-.93l-1-.22-2-.43c-1-.2-2.1-.41-3.2-.6A251.3,251.3,0,0,0,232.38,515a250.92,250.92,0,0,0-41.57,3.1l-1.28.23-1.06.2-1.26.25-1.57.33-1.36.32-1.48.36-.37.1c-.53.13-1.05.27-1.55.42s-1.09.32-1.61.49-.84.27-1.24.41c-4.94,1.73-.09,3.71-.09,5.82h0v13c0,6.65,20.14,12,54.44,12s54.43-5.38,54.43-12V527C286.81,524.91,291.76,523,287,521.25Z"/>
          <path class="cls-4" d="M210.65,386.91V543.63c6.8.47,14.11.72,21.73.72V387.63C224.76,387.63,217.45,387.37,210.65,386.91Z"/>
          <path class="cls-4" d="M188.93,384.41V541.14a216.46,216.46,0,0,0,21.72,2.49V386.91A216.25,216.25,0,0,1,188.93,384.41Z"/>
          <path class="cls-4" d="M167.21,375l7.66,156.72c0,3.74.73,7.09,14.06,9.41V384.41C175.6,382.1,167.21,378.75,167.21,375Z"/>
          <path class="cls-4" d="M232.38,387.63V544.35c7.61,0,14.92-.25,21.72-.72V386.91C247.3,387.37,240,387.63,232.38,387.63Z"/>
          <path class="cls-4" d="M275.82,384.41V541.14c13.33-2.32,14.06-5.67,14.06-9.41L297.54,375C297.54,378.75,289.15,382.1,275.82,384.41Z"/>
          <path class="cls-4" d="M254.1,386.91V543.63a216.46,216.46,0,0,0,21.72-2.49V384.41A216.25,216.25,0,0,1,254.1,386.91Z"/>
          <path class="cls-4" d="M232.38,362.38c-36,0-65.17,5.66-65.17,12.63,0,3.74,8.39,7.09,21.72,9.4v0a216.25,216.25,0,0,0,21.72,2.5v0c6.8.46,14.11.72,21.73.72v0c7.61,0,14.92-.26,21.72-.72v0a216.25,216.25,0,0,0,21.72-2.5v0c13.33-2.31,21.72-5.66,21.72-9.4C297.54,368,268.37,362.38,232.38,362.38Z"/>
          <g>
            <g>
              <path class="cls-5" d="M232.38,350.44c-37.87,0-68.57,5.95-68.57,13.28V378.1c0,7.33,30.7,13.28,68.57,13.28s68.56-5.95,68.56-13.28V363.72C300.94,356.39,270.24,350.44,232.38,350.44Z"/>
              <path class="cls-6" d="M232.38,350.44c-37.87,0-68.57,5.95-68.57,13.28V378.1c0,7.33,30.7,13.28,68.57,13.28s68.56-5.95,68.56-13.28V363.72C300.94,356.39,270.24,350.44,232.38,350.44Z"/>
            </g>
            <g>
              <ellipse class="cls-5" cx="232.38" cy="363.72" rx="68.56" ry="13.28"/>
              <ellipse class="cls-6" cx="232.38" cy="363.72" rx="68.56" ry="13.28"/>
            </g>
          </g>
        </g>
        <path class="cls-4" d="M254.41,362.87h0a2.88,2.88,0,0,1-2.88-2.88v-8.05a5.9,5.9,0,0,0-5.9-5.9h-26.5a5.91,5.91,0,0,0-5.91,5.9V360a2.88,2.88,0,0,1-2.88,2.88h0a2.88,2.88,0,0,1-2.89-2.88v-8.05a11.67,11.67,0,0,1,11.68-11.67h26.5a11.67,11.67,0,0,1,11.67,11.67V360A2.88,2.88,0,0,1,254.41,362.87Z"/>
      </g>
      <g>
        <path class="cls-4" d="M287.76,438.05l-14.09,7.33a.69.69,0,0,0,.11,1.26h0A21.14,21.14,0,0,1,286,456.92l1.84,3.5,6.09-3.17.09-15.38A4.29,4.29,0,0,0,287.76,438.05Z"/>
        <path class="cls-4" d="M293.75,443.78l14.09,7.34a.68.68,0,0,1-.11,1.25h0a21.15,21.15,0,0,0-12.23,10.29l-1.84,3.49L287.57,463l-.09-15.37A4.29,4.29,0,0,1,293.75,443.78Z"/>
        <ellipse class="cls-4" cx="290.67" cy="462.19" rx="8.56" ry="4.67"/>
        <path class="cls-4" d="M367,534a14.13,14.13,0,0,1-2-9.86,32.26,32.26,0,0,0,.48-5.51,31.15,31.15,0,0,0-12.37-24.87,80.83,80.83,0,0,1-15.89-16.52C331.5,469.53,322.75,464,312.93,464H275c-21.42,0-39.45,17.53-39.11,39a38,38,0,0,0,4.26,17,14.49,14.49,0,0,1-.64,14.17,38.08,38.08,0,0,0-5.56,21c.55,20.88,18.19,37.28,39.08,37.28h60.5c21.4,0,39.42-17.5,39.11-38.89A38,38,0,0,0,367,534Z"/>
        <path class="cls-4" d="M282.11,464s-12.9,6.44-12.82,19.63"/>
        <path class="cls-4" d="M292.79,464c16.68,4.6,18.34,15.86,18.34,39.63"/>
        <path class="cls-4" d="M305.72,464c16.85.06,23.67,12.23,23.67,29"/>
      </g>
    </g>
    <g>
      <g>
        <rect class="cls-4" x="427.87" y="353.22" width="248.73" height="150.69"/>
        <polygon class="cls-4" points="727.92 579.4 479.19 579.4 427.87 511.37 676.6 511.37 727.92 579.4"/>
        <polygon class="cls-4" points="727.92 571.94 479.19 571.94 427.87 503.91 676.6 503.91 727.92 571.94"/>
        <rect class="cls-4" x="479.19" y="571.94" width="248.73" height="10.46"/>
        <polygon class="cls-4" points="479.19 582.4 427.87 514.37 427.87 504.24 479.19 572.28 479.19 582.4"/>
      </g>
      <rect class="cls-7" x="434.32" y="358.27" width="235.83" height="140.34"/>
      <g>
        <g>
          <g>
            <g>
              <path class="cls-5" d="M457.09,470.05a1.5,1.5,0,0,1-1.5-1.5v-82a1.5,1.5,0,0,1,1.5-1.5h46.7a1.5,1.5,0,0,1,1.5,1.5v14.77h14.77a1.5,1.5,0,0,1,1.5,1.5v65.7a1.5,1.5,0,0,1-1.5,1.5Z"/>
              <path class="cls-5" d="M503.79,386.58v16.27h16.27v65.7h-63v-82h46.7m0-3h-46.7a3,3,0,0,0-3,3v82a3,3,0,0,0,3,3h63a3,3,0,0,0,3-3v-65.7a3,3,0,0,0-3-3H506.79V386.58a3,3,0,0,0-3-3Z"/>
            </g>
            <g>
              <path class="cls-5" d="M503.79,404.35a1.51,1.51,0,0,1-1.5-1.5V386.58a1.5,1.5,0,0,1,.93-1.39,1.65,1.65,0,0,1,.57-.11,1.47,1.47,0,0,1,1.06.44l16.27,16.27a1.49,1.49,0,0,1,.33,1.63,1.51,1.51,0,0,1-1.39.93Z"/>
              <path class="cls-5" d="M503.79,386.58l16.27,16.27H503.79V386.58m0-3a2.87,2.87,0,0,0-1.14.23,3,3,0,0,0-1.86,2.77v16.27a3,3,0,0,0,3,3h16.27a3,3,0,0,0,2.12-5.13l-16.26-16.26a3,3,0,0,0-2.13-.88Z"/>
            </g>
          </g>
          <g>
            <polyline class="cls-8" points="481.74 435.89 469.41 429.87 481.03 423.13"/>
            <polyline class="cls-8" points="495.41 435.89 507.74 429.87 496.11 423.13"/>
            <line class="cls-9" x1="484.89" y1="435.89" x2="492.25" y2="423.14"/>
          </g>
        </g>
        <g>
          <g>
            <polygon class="cls-4" points="503.79 386.58 457.09 386.58 457.09 468.55 520.06 468.55 520.06 402.85 503.79 402.85 503.79 386.58"/>
            <polygon class="cls-4" points="520.06 402.85 503.79 402.85 503.79 386.58 520.06 402.85"/>
          </g>
          <g>
            <polyline class="cls-4" points="481.74 435.89 469.41 429.87 481.03 423.13"/>
            <polyline class="cls-4" points="495.41 435.89 507.74 429.87 496.11 423.13"/>
            <line class="cls-6" x1="484.89" y1="435.89" x2="492.25" y2="423.14"/>
          </g>
        </g>
      </g>
      <g>
        <g>
          <g>
            <path class="cls-5" d="M548.66,450.54a1.49,1.49,0,0,1-1.49-1.34l-5.36-49.86a5.91,5.91,0,0,1,5.89-6.58h18.73a5.9,5.9,0,0,1,5.85,5v.05h69a3.64,3.64,0,0,1,3.59,4.18l-5,47.23a1.49,1.49,0,0,1-1.49,1.34Z"/>
            <path class="cls-5" d="M566.43,394.26A4.43,4.43,0,0,1,570.8,398l.21,1.31h70.32a2.14,2.14,0,0,1,2.11,2.45l-5,47.3H548.66l-5.36-49.86a4.43,4.43,0,0,1,4.41-4.92h18.72m0-3H547.71a7.43,7.43,0,0,0-7.39,8.25l5.36,49.86a3,3,0,0,0,3,2.67h89.76a3,3,0,0,0,3-2.68l5-47.25a5.13,5.13,0,0,0-5.08-5.82H573.46a7.38,7.38,0,0,0-7-5Z"/>
          </g>
          <g>
            <path class="cls-5" d="M545.81,466.27a1.5,1.5,0,0,1-1.49-1.34l-6.09-57.14a3.64,3.64,0,0,1,3.6-4.1H645.24a3.64,3.64,0,0,1,3.6,4.16l-6.09,57.08a1.49,1.49,0,0,1-1.49,1.34Z"/>
            <path class="cls-5" d="M645.24,405.19a2.15,2.15,0,0,1,2.12,2.44l-6.1,57.14H545.81l-6.09-57.14a2.14,2.14,0,0,1,2.11-2.44H645.24m0-3H541.83a5.14,5.14,0,0,0-5.09,5.8l6.09,57.1a3,3,0,0,0,3,2.68h95.45a3,3,0,0,0,3-2.68l6.08-57.1a5.14,5.14,0,0,0-5.09-5.8Z"/>
          </g>
        </g>
        <g>
          <path class="cls-4" d="M638.42,449H548.66l-5.36-49.86a4.43,4.43,0,0,1,4.4-4.92h18.73A4.43,4.43,0,0,1,570.8,398l.21,1.31h70.32a2.14,2.14,0,0,1,2.11,2.45Z"/>
          <path class="cls-4" d="M641.26,464.77H545.81l-6.09-57.14a2.14,2.14,0,0,1,2.11-2.44H645.24a2.15,2.15,0,0,1,2.12,2.44Z"/>
        </g>
      </g>
    </g>
    <g>
      <g>
        <rect class="cls-4" x="774.86" y="353.22" width="248.73" height="150.69"/>
        <polygon class="cls-4" points="1074.92 579.4 826.18 579.4 774.86 511.37 1023.59 511.37 1074.92 579.4"/>
        <polygon class="cls-4" points="1074.92 571.94 826.18 571.94 774.86 503.91 1023.59 503.91 1074.92 571.94"/>
        <rect class="cls-4" x="826.18" y="571.94" width="248.73" height="10.46"/>
        <polygon class="cls-4" points="826.18 582.4 774.86 514.37 774.86 504.24 826.18 572.28 826.18 582.4"/>
      </g>
      <rect class="cls-7" x="781.31" y="358.27" width="235.83" height="140.34"/>
      <g>
        <g>
          <g>
            <path class="cls-3" d="M901.48,466.53c-4.48,0-19.11-.36-19.11-5v-4.22l-.15-.19a1.79,1.79,0,0,1-.51-1.63,1.94,1.94,0,0,1,1.36-1.18,4.56,4.56,0,0,1,.44-.14l.56-.18.67-.18.5-.12.47-.11,1-.2.8-.14a93.88,93.88,0,0,1,28.07,0l1.09.2.69.15.33.08c.43.1.85.2,1.23.31l.57.18a4.72,4.72,0,0,1,.53.18,1.91,1.91,0,0,1,1.31,1.17,1.77,1.77,0,0,1-.55,1.62,1.39,1.39,0,0,0-.15.19v4.2C920.6,466.17,906,466.53,901.48,466.53Z"/>
            <path class="cls-5" d="M901.48,453.19a84.31,84.31,0,0,1,13.9,1l1.06.2.67.14.32.08c.42.1.82.2,1.19.31l.53.16c.18.05.34.11.5.17,1.59.56,0,1.21,0,1.9v4.34c0,2.21-6.7,4-18.12,4s-18.11-1.79-18.11-4v-4.34h0c0-.7-1.62-1.36,0-1.93l.41-.14.54-.16.51-.14.12,0,.5-.12.45-.1.52-.11.42-.09.36-.06.42-.08a83.7,83.7,0,0,1,13.83-1m0-2a86.43,86.43,0,0,0-14.17,1.06l-.45.08-.37.07-.44.09-.55.12-.49.11-.52.13-.13,0-.56.15-.6.18-.46.16a2.84,2.84,0,0,0-2,1.85,2.63,2.63,0,0,0,.62,2.43v3.88c0,5,10.94,6,20.11,6s20.12-1,20.12-6v-3.85a2.64,2.64,0,0,0,.66-2.42,2.77,2.77,0,0,0-1.94-1.86l-.56-.19-.59-.18-1.29-.33-.34-.08-.7-.15-1.12-.21a85.88,85.88,0,0,0-14.24-1.07Z"/>
          </g>
          <g>
            <path class="cls-3" d="M901.48,464c-2.5,0-5-.08-7.3-.24a1,1,0,0,1-.93-1V410.58a1,1,0,0,1,.32-.73,1,1,0,0,1,.68-.27h.07c2.31.16,4.71.24,7.16.24a1,1,0,0,1,1,1V463A1,1,0,0,1,901.48,464Z"/>
            <path class="cls-5" d="M894.25,410.58c2.27.16,4.7.24,7.23.24V463c-2.53,0-5-.08-7.23-.24V410.58m0-2a2,2,0,0,0-2,2v52.15a2,2,0,0,0,1.87,2c2.37.16,4.85.24,7.36.24a2,2,0,0,0,2-2V410.82a2,2,0,0,0-2-2c-2.42,0-4.81-.08-7.09-.23Z"/>
          </g>
          <g>
            <path class="cls-3" d="M894.19,463.73a72.24,72.24,0,0,1-7.34-.84,1,1,0,0,1-.83-1V409.75a1,1,0,0,1,.36-.76,1,1,0,0,1,.64-.24l.18,0a70.51,70.51,0,0,0,7.12.81,1,1,0,0,1,.93,1v52.15a1,1,0,0,1-1,1Z"/>
            <path class="cls-5" d="M887,409.75a71.19,71.19,0,0,0,7.23.83v52.15a68.45,68.45,0,0,1-7.23-.83V409.75m0-2a2,2,0,0,0-1.28.47,2,2,0,0,0-.72,1.53V461.9a2,2,0,0,0,1.66,2,73.73,73.73,0,0,0,7.44.86h.13a2,2,0,0,0,2-2V410.58a2,2,0,0,0-1.86-2,68.32,68.32,0,0,1-7-.81,2.07,2.07,0,0,0-.35,0Z"/>
          </g>
          <g>
            <path class="cls-3" d="M887,462.9h-.17c-4.06-.71-5.5-1.78-5.5-4.12,0,0-2.55-52.13-2.55-52.15a1,1,0,0,1,1-1h0a1,1,0,0,1,1,.95v0c.12.29,1.52,1.31,6.4,2.16a1,1,0,0,1,.82,1V461.9a1,1,0,0,1-1,1Z"/>
            <path class="cls-5" d="M879.8,406.62v0m0,.08c.12,1.21,2.89,2.3,7.22,3.05V461.9c-4.43-.77-4.67-1.88-4.67-3.13L879.8,406.7m0-2.08h0a2,2,0,0,0-2,2v.21l2.55,52c0,3.28,2.55,4.39,6.33,5l.34,0a2,2,0,0,0,1.29-.47,2,2,0,0,0,.71-1.53V409.75a2,2,0,0,0-1.65-2c-3.92-.68-5.27-1.41-5.64-1.67a2,2,0,0,0-1.93-1.49Z"/>
          </g>
          <g>
            <path class="cls-3" d="M901.48,464a1,1,0,0,1-1-1V410.82a1,1,0,0,1,1-1c2.45,0,4.86-.08,7.16-.24h.07a1,1,0,0,1,.68.27,1,1,0,0,1,.32.73v52.15a1,1,0,0,1-.93,1C906.43,463.89,904,464,901.48,464Z"/>
            <path class="cls-5" d="M908.71,410.58v52.15c-2.26.16-4.69.24-7.23.24V410.82c2.54,0,5-.08,7.23-.24m0-2h-.14c-2.28.15-4.66.23-7.09.23a2,2,0,0,0-2,2V463a2,2,0,0,0,2,2c2.52,0,5-.08,7.37-.24a2,2,0,0,0,1.86-2V410.58a2,2,0,0,0-2-2Z"/>
          </g>
          <g>
            <path class="cls-3" d="M915.94,462.9a1,1,0,0,1-.64-.23,1,1,0,0,1-.36-.77V409.75a1,1,0,0,1,.83-1c4.82-.84,6.24-1.84,6.4-2.18v0a1,1,0,0,1,1-.95h0a1,1,0,0,1,1,1s-2.55,52.2-2.55,52.2c0,2.29-1.44,3.36-5.51,4.07Z"/>
            <path class="cls-5" d="M923.17,406.62a.22.22,0,0,1,0,.08v-.08m0,.08-2.54,52.07c0,1.25-.24,2.36-4.68,3.13V409.75c4.34-.75,7.11-1.84,7.22-3.05m0-2.08a2,2,0,0,0-1.93,1.49c-.38.26-1.73,1-5.64,1.67a2,2,0,0,0-1.66,2V461.9a2,2,0,0,0,2,2,2,2,0,0,0,.34,0c3.78-.65,6.31-1.76,6.34-5l2.54-52a1.48,1.48,0,0,0,0-.21,2,2,0,0,0-1.95-2Z"/>
          </g>
          <g>
            <path class="cls-3" d="M908.71,463.73a1,1,0,0,1-.68-.26,1,1,0,0,1-.32-.74V410.58a1,1,0,0,1,.93-1,70.73,70.73,0,0,0,7.13-.81l.17,0a1,1,0,0,1,.64.24,1,1,0,0,1,.36.76V461.9a1,1,0,0,1-.83,1,72.36,72.36,0,0,1-7.33.84Z"/>
            <path class="cls-5" d="M915.94,409.75V461.9a68.45,68.45,0,0,1-7.23.83V410.58a71.19,71.19,0,0,0,7.23-.83m0-2a2,2,0,0,0-.34,0,68.54,68.54,0,0,1-7,.81,2,2,0,0,0-1.86,2v52.15a2,2,0,0,0,.64,1.47,2,2,0,0,0,1.36.53h.14a73.85,73.85,0,0,0,7.43-.86,2,2,0,0,0,1.66-2V409.75a2,2,0,0,0-2-2Z"/>
          </g>
          <g>
            <path class="cls-3" d="M901.48,411.82c-2.49,0-5-.08-7.29-.24h0c-2.71-.19-5.17-.47-7.33-.84h0c-7.22-1.26-8.05-2.95-8.05-4.12,0-5.14,21.76-5.2,22.68-5.2s22.69.06,22.69,5.2c0,1.17-.84,2.86-8.06,4.12h0c-2.15.37-4.62.65-7.33.84h0C906.43,411.74,904,411.82,901.48,411.82Z"/>
            <path class="cls-5" d="M901.48,402.42c12,0,21.69,1.88,21.69,4.2,0,1.24-2.79,2.36-7.23,3.13v0a71.19,71.19,0,0,1-7.23.83v0c-2.26.16-4.69.24-7.23.24v0c-2.53,0-5-.08-7.23-.24v0a71.19,71.19,0,0,1-7.23-.83v0c-4.43-.77-7.22-1.89-7.22-3.13,0-2.32,9.7-4.2,21.68-4.2m0-2a86.43,86.43,0,0,0-15.71,1.27c-5.52,1.06-8,2.59-8,4.93s2.73,4,8.88,5.1h0a73.73,73.73,0,0,0,7.44.86h0c2.37.16,4.85.24,7.36.24s5-.08,7.37-.24h0a73.85,73.85,0,0,0,7.43-.86h0c6.14-1.07,8.88-2.64,8.88-5.1s-2.46-3.87-8-4.93a86.55,86.55,0,0,0-15.72-1.27Z"/>
          </g>
          <g>
            <g>
              <path class="cls-3" d="M901.48,413.07c-1,0-23.81-.06-23.81-5.42v-4.79c0-5.35,22.84-5.41,23.81-5.41s23.82.06,23.82,5.41v4.79C925.3,413,902.45,413.07,901.48,413.07Z"/>
              <path class="cls-5" d="M901.48,398.45c12.6,0,22.82,2,22.82,4.41v4.79c0,2.44-10.22,4.42-22.82,4.42s-22.81-2-22.81-4.42v-4.79c0-2.44,10.21-4.41,22.81-4.41m0-2A91,91,0,0,0,885,397.78c-5.74,1.11-8.3,2.68-8.3,5.08v4.79c0,2.41,2.56,4,8.3,5.09a103.2,103.2,0,0,0,33,0c5.74-1.12,8.3-2.68,8.3-5.09v-4.79c0-2.4-2.56-4-8.3-5.08a91.2,91.2,0,0,0-16.52-1.33Z"/>
            </g>
            <g>
              <path class="cls-3" d="M901.48,408.28c-1,0-23.81-.06-23.81-5.42s22.84-5.41,23.81-5.41,23.82.06,23.82,5.41S902.45,408.28,901.48,408.28Z"/>
              <path class="cls-5" d="M901.48,398.45c12.6,0,22.82,2,22.82,4.41s-10.22,4.42-22.82,4.42-22.81-2-22.81-4.42,10.21-4.41,22.81-4.41m0-2A91,91,0,0,0,885,397.78c-5.74,1.11-8.3,2.68-8.3,5.08s2.56,4,8.3,5.09a103.2,103.2,0,0,0,33,0c5.74-1.11,8.3-2.68,8.3-5.09s-2.56-4-8.3-5.08a91.2,91.2,0,0,0-16.52-1.33Z"/>
            </g>
          </g>
        </g>
        <g>
          <path class="cls-3" d="M908.82,403.58a2,2,0,0,1-2-2v-2.68a1,1,0,0,0-1-1h-8.82a1,1,0,0,0-1,1v2.68a2,2,0,0,1-3.92,0v-2.68a4.89,4.89,0,0,1,4.88-4.88h8.82a4.9,4.9,0,0,1,4.89,4.88v2.68A2,2,0,0,1,908.82,403.58Z"/>
          <path class="cls-5" d="M905.89,395.06a3.89,3.89,0,0,1,3.89,3.88v2.68a1,1,0,1,1-1.92,0v-2.68a2,2,0,0,0-2-2h-8.82a2,2,0,0,0-2,2v2.68a1,1,0,0,1-1.92,0v-2.68a3.88,3.88,0,0,1,3.88-3.88h8.82m0-2h-8.82a5.89,5.89,0,0,0-5.88,5.88v2.68a3,3,0,0,0,5.92,0V399h8.75v2.64a3,3,0,1,0,5.92,0v-2.68a5.89,5.89,0,0,0-5.89-5.88Z"/>
        </g>
      </g>
      <g>
        <g>
          <path class="cls-3" d="M919.65,455.29c-.16-.06-.32-.12-.5-.17l-.53-.16c-.37-.11-.77-.21-1.19-.31l-.32-.08-.67-.14-1.06-.2a93.39,93.39,0,0,0-27.73,0l-.43.08-.35.06-.42.09-.52.11-.45.1-.5.12-.12,0-.51.14-.54.16-.41.14c-1.65.57,0,1.23,0,1.93h0v4.34c0,2.21,6.7,4,18.11,4s18.12-1.79,18.12-4v-4.34C919.6,456.5,921.24,455.85,919.65,455.29Z"/>
          <path class="cls-4" d="M894.25,410.58v52.15c2.26.16,4.7.24,7.23.24V410.82C899,410.82,896.51,410.74,894.25,410.58Z"/>
          <path class="cls-4" d="M887,409.75V461.9a68.45,68.45,0,0,0,7.23.83V410.58A71.19,71.19,0,0,1,887,409.75Z"/>
          <path class="cls-4" d="M879.8,406.62l2.55,52.15c0,1.25.24,2.36,4.67,3.13V409.75C882.59,409,879.8,407.86,879.8,406.62Z"/>
          <path class="cls-4" d="M901.48,410.82V463c2.54,0,5-.08,7.23-.24V410.58C906.45,410.74,904,410.82,901.48,410.82Z"/>
          <path class="cls-4" d="M915.94,409.75V461.9c4.44-.77,4.68-1.88,4.68-3.13l2.55-52.15C923.17,407.86,920.38,409,915.94,409.75Z"/>
          <path class="cls-4" d="M908.71,410.58v52.15a68.45,68.45,0,0,0,7.23-.83V409.75A71.19,71.19,0,0,1,908.71,410.58Z"/>
          <path class="cls-4" d="M901.48,402.42c-12,0-21.68,1.88-21.68,4.2,0,1.24,2.79,2.36,7.22,3.13v0a71.19,71.19,0,0,0,7.23.83v0c2.26.16,4.7.24,7.23.24v0c2.54,0,5-.08,7.23-.24v0a71.19,71.19,0,0,0,7.23-.83v0c4.44-.77,7.23-1.89,7.23-3.13C923.17,404.3,913.46,402.42,901.48,402.42Z"/>
          <g>
            <g>
              <path class="cls-5" d="M901.48,398.45c-12.6,0-22.81,2-22.81,4.41v4.79c0,2.44,10.21,4.42,22.81,4.42s22.82-2,22.82-4.42v-4.79C924.3,400.42,914.08,398.45,901.48,398.45Z"/>
              <path class="cls-6" d="M901.48,398.45c-12.6,0-22.81,2-22.81,4.41v4.79c0,2.44,10.21,4.42,22.81,4.42s22.82-2,22.82-4.42v-4.79C924.3,400.42,914.08,398.45,901.48,398.45Z"/>
            </g>
            <g>
              <ellipse class="cls-5" cx="901.48" cy="402.86" rx="22.82" ry="4.42"/>
              <ellipse class="cls-6" cx="901.48" cy="402.86" rx="22.82" ry="4.42"/>
            </g>
          </g>
        </g>
        <path class="cls-4" d="M908.82,402.58h0a1,1,0,0,1-1-1V399a2,2,0,0,0-2-2h-8.82a2,2,0,0,0-2,2v2.67a1,1,0,0,1-1,1h0a1,1,0,0,1-1-1V399a3.89,3.89,0,0,1,3.88-3.89h8.82a3.89,3.89,0,0,1,3.89,3.89v2.67A1,1,0,0,1,908.82,402.58Z"/>
      </g>
      <g>
        <g>
          <path class="cls-3" d="M839.36,315l-.5-.16-.53-.17-1.19-.31-.32-.07-.67-.14-1.06-.2a93.39,93.39,0,0,0-27.73,0l-.43.07-.35.07-.42.08-.52.12-.45.1-.5.12-.12,0-.51.14-.54.17-.41.13c-1.65.58,0,1.24,0,1.94h0v4.33c0,2.21,6.7,4,18.11,4s18.12-1.8,18.12-4v-4.33C839.31,316.18,841,315.53,839.36,315Z"/>
          <path class="cls-4" d="M814,270.26v52.15c2.26.16,4.7.24,7.23.24V270.5C818.66,270.5,816.22,270.41,814,270.26Z"/>
          <path class="cls-4" d="M806.73,269.43v52.15a71.19,71.19,0,0,0,7.23.83V270.26C811.27,270.07,808.82,269.79,806.73,269.43Z"/>
          <path class="cls-4" d="M799.5,266.3l2.55,52.15c0,1.24.25,2.36,4.68,3.13V269.43C802.3,268.66,799.5,267.54,799.5,266.3Z"/>
          <path class="cls-4" d="M821.19,270.5v52.15c2.54,0,5-.08,7.23-.24V270.26C826.16,270.41,823.73,270.5,821.19,270.5Z"/>
          <path class="cls-4" d="M835.65,269.43v52.15c4.43-.77,4.68-1.89,4.68-3.13l2.55-52.15C842.88,267.54,840.08,268.66,835.65,269.43Z"/>
          <path class="cls-4" d="M828.42,270.26v52.15a71.19,71.19,0,0,0,7.23-.83V269.43C833.56,269.79,831.11,270.07,828.42,270.26Z"/>
          <path class="cls-4" d="M821.19,262.1c-12,0-21.69,1.88-21.69,4.2,0,1.24,2.8,2.36,7.23,3.13v0c2.09.36,4.54.64,7.23.83v0c2.26.15,4.7.24,7.23.24v0c2.54,0,5-.09,7.23-.24v0c2.69-.19,5.14-.47,7.23-.83v0c4.43-.77,7.23-1.89,7.23-3.13C842.88,264,833.17,262.1,821.19,262.1Z"/>
          <g>
            <g>
              <path class="cls-5" d="M821.19,258.12c-12.6,0-22.81,2-22.81,4.42v4.79c0,2.44,10.21,4.41,22.81,4.41s22.82-2,22.82-4.41v-4.79C844,260.1,833.79,258.12,821.19,258.12Z"/>
              <path class="cls-6" d="M821.19,258.12c-12.6,0-22.81,2-22.81,4.42v4.79c0,2.44,10.21,4.41,22.81,4.41s22.82-2,22.82-4.41v-4.79C844,260.1,833.79,258.12,821.19,258.12Z"/>
            </g>
            <g>
              <ellipse class="cls-5" cx="821.19" cy="262.54" rx="22.82" ry="4.42"/>
              <ellipse class="cls-6" cx="821.19" cy="262.54" rx="22.82" ry="4.42"/>
            </g>
          </g>
        </g>
        <path class="cls-4" d="M828.52,262.26h0a1,1,0,0,1-1-1v-2.68a2,2,0,0,0-2-2h-8.82a2,2,0,0,0-2,2v2.68a1,1,0,0,1-1,1h0a1,1,0,0,1-1-1v-2.68a3.88,3.88,0,0,1,3.88-3.88h8.82a3.89,3.89,0,0,1,3.89,3.88v2.68A1,1,0,0,1,828.52,262.26Z"/>
      </g>
      <g>
        <g>
          <path class="cls-3" d="M999.19,315l-.5-.16-.53-.17-1.19-.31-.32-.07-.67-.14-1.07-.2a93.32,93.32,0,0,0-27.72,0l-.43.07-.35.07-.42.08-.52.12-.46.1-.49.12-.12,0-.52.14-.53.17-.42.13c-1.64.58,0,1.24,0,1.94h0v4.33c0,2.21,6.7,4,18.11,4s18.11-1.8,18.11-4v-4.33C999.13,316.18,1000.78,315.53,999.19,315Z"/>
          <path class="cls-4" d="M973.79,270.26v52.15c2.26.16,4.69.24,7.23.24V270.5C978.48,270.5,976.05,270.41,973.79,270.26Z"/>
          <path class="cls-4" d="M966.56,269.43v52.15a71.19,71.19,0,0,0,7.23.83V270.26C971.1,270.07,968.65,269.79,966.56,269.43Z"/>
          <path class="cls-4" d="M959.33,266.3l2.55,52.15c0,1.24.25,2.36,4.68,3.13V269.43C962.13,268.66,959.33,267.54,959.33,266.3Z"/>
          <path class="cls-4" d="M981,270.5v52.15c2.54,0,5-.08,7.23-.24V270.26C986,270.41,983.56,270.5,981,270.5Z"/>
          <path class="cls-4" d="M995.48,269.43v52.15c4.43-.77,4.68-1.89,4.68-3.13l2.55-52.15C1002.71,267.54,999.91,268.66,995.48,269.43Z"/>
          <path class="cls-4" d="M988.25,270.26v52.15a71.19,71.19,0,0,0,7.23-.83V269.43C993.39,269.79,990.94,270.07,988.25,270.26Z"/>
          <path class="cls-4" d="M981,262.1c-12,0-21.69,1.88-21.69,4.2,0,1.24,2.8,2.36,7.23,3.13v0c2.09.36,4.54.64,7.23.83v0c2.26.15,4.69.24,7.23.24v0c2.54,0,5-.09,7.23-.24v0c2.69-.19,5.14-.47,7.23-.83v0c4.43-.77,7.23-1.89,7.23-3.13C1002.71,264,993,262.1,981,262.1Z"/>
          <g>
            <g>
              <path class="cls-5" d="M981,258.12c-12.6,0-22.82,2-22.82,4.42v4.79c0,2.44,10.22,4.41,22.82,4.41s22.82-2,22.82-4.41v-4.79C1003.84,260.1,993.62,258.12,981,258.12Z"/>
              <path class="cls-6" d="M981,258.12c-12.6,0-22.82,2-22.82,4.42v4.79c0,2.44,10.22,4.41,22.82,4.41s22.82-2,22.82-4.41v-4.79C1003.84,260.1,993.62,258.12,981,258.12Z"/>
            </g>
            <g>
              <ellipse class="cls-5" cx="981.02" cy="262.54" rx="22.82" ry="4.42"/>
              <ellipse class="cls-6" cx="981.02" cy="262.54" rx="22.82" ry="4.42"/>
            </g>
          </g>
        </g>
        <path class="cls-4" d="M988.35,262.26h0a1,1,0,0,1-1-1v-2.68a2,2,0,0,0-2-2h-8.82a2,2,0,0,0-2,2v2.68a1,1,0,0,1-1,1h0a1,1,0,0,1-1-1v-2.68a3.88,3.88,0,0,1,3.88-3.88h8.82a3.88,3.88,0,0,1,3.88,3.88v2.68A1,1,0,0,1,988.35,262.26Z"/>
      </g>
      <g>
        <g>
          <path class="cls-3" d="M919.58,251.49l-.5-.16-.54-.17c-.37-.1-.77-.21-1.19-.3l-.32-.08-.66-.14-1.07-.2a93.32,93.32,0,0,0-27.72,0l-.43.07-.35.07-.42.08-.53.12-.45.1-.49.12-.12,0-.52.14-.53.17-.42.13c-1.64.58,0,1.24,0,1.94h0v4.33c0,2.21,6.71,4,18.12,4s18.11-1.8,18.11-4V253.4C919.52,252.71,921.17,252.06,919.58,251.49Z"/>
          <path class="cls-4" d="M894.18,206.79v52.15c2.26.16,4.69.24,7.23.24V207C898.87,207,896.44,206.94,894.18,206.79Z"/>
          <path class="cls-4" d="M887,206v52.15a71.19,71.19,0,0,0,7.23.83V206.79C891.49,206.6,889,206.32,887,206Z"/>
          <path class="cls-4" d="M879.72,202.83,882.27,255c0,1.24.24,2.36,4.68,3.13V206C882.51,205.19,879.72,204.07,879.72,202.83Z"/>
          <path class="cls-4" d="M901.41,207v52.15c2.53,0,5-.08,7.23-.24V206.79C906.38,206.94,903.94,207,901.41,207Z"/>
          <path class="cls-4" d="M915.87,206v52.15c4.43-.77,4.67-1.89,4.67-3.13l2.55-52.15C923.09,204.07,920.3,205.19,915.87,206Z"/>
          <path class="cls-4" d="M908.64,206.79v52.15a71.19,71.19,0,0,0,7.23-.83V206C913.78,206.32,911.33,206.6,908.64,206.79Z"/>
          <path class="cls-4" d="M901.41,198.63c-12,0-21.69,1.88-21.69,4.2,0,1.24,2.79,2.36,7.23,3.13v0c2.09.36,4.54.64,7.23.83v0c2.26.15,4.69.24,7.23.24v0c2.53,0,5-.09,7.23-.24v0c2.69-.19,5.14-.47,7.23-.83v0c4.43-.77,7.22-1.89,7.22-3.13C923.09,200.51,913.38,198.63,901.41,198.63Z"/>
          <g>
            <g>
              <path class="cls-5" d="M901.41,194.65c-12.6,0-22.82,2-22.82,4.42v4.79c0,2.44,10.22,4.41,22.82,4.41s22.81-2,22.81-4.41v-4.79C924.22,196.63,914,194.65,901.41,194.65Z"/>
              <path class="cls-6" d="M901.41,194.65c-12.6,0-22.82,2-22.82,4.42v4.79c0,2.44,10.22,4.41,22.82,4.41s22.81-2,22.81-4.41v-4.79C924.22,196.63,914,194.65,901.41,194.65Z"/>
            </g>
            <g>
              <ellipse class="cls-5" cx="901.41" cy="199.07" rx="22.82" ry="4.42"/>
              <ellipse class="cls-6" cx="901.41" cy="199.07" rx="22.82" ry="4.42"/>
            </g>
          </g>
        </g>
        <path class="cls-4" d="M908.74,198.79h0a1,1,0,0,1-1-1v-2.68a2,2,0,0,0-2-2H897a2,2,0,0,0-2,2v2.68a1,1,0,0,1-1,1h0a1,1,0,0,1-1-1v-2.68a3.89,3.89,0,0,1,3.89-3.88h8.82a3.88,3.88,0,0,1,3.88,3.88v2.68A1,1,0,0,1,908.74,198.79Z"/>
      </g>
    </g>
    <g>
      <line class="cls-9" x1="346.05" y1="443.29" x2="400.6" y2="443.29"/>
      <polygon class="cls-5" points="397.98 452.27 413.52 443.29 397.98 434.32 397.98 452.27"/>
    </g>
    <g>
      <line class="cls-9" x1="694.19" y1="443.29" x2="748.74" y2="443.29"/>
      <polygon class="cls-5" points="746.12 452.27 761.66 443.29 746.12 434.32 746.12 452.27"/>
    </g>
    <g>
      <g>
        <line class="cls-9" x1="535.98" y1="340.27" x2="535.98" y2="285.71"/>
        <polygon class="cls-5" points="544.96 288.34 535.98 272.8 527 288.34 544.96 288.34"/>
      </g>
      <g>
        <line class="cls-9" x1="561.37" y1="272.8" x2="561.37" y2="327.35"/>
        <polygon class="cls-5" points="552.39 324.72 561.37 340.27 570.34 324.72 552.39 324.72"/>
      </g>
    </g>
    <g>
      <polyline class="cls-9" points="901.53 340.27 901.53 331.1 870.32 321.89"/>
      <polygon class="cls-5" points="875.38 314.03 857.93 318.24 870.3 331.25 875.38 314.03"/>
    </g>
    <g>
      <polyline class="cls-9" points="901.48 340.27 901.48 331.1 932.69 321.89"/>
      <polygon class="cls-5" points="932.71 331.25 945.08 318.24 927.63 314.03 932.71 331.25"/>
    </g>
    <g>
      <line class="cls-9" x1="901.48" y1="340.27" x2="901.48" y2="282.34"/>
      <polygon class="cls-5" points="910.46 284.97 901.48 269.43 892.51 284.97 910.46 284.97"/>
    </g>
    <path class="cls-3" d="M607.75,189.34A33.28,33.28,0,0,0,560.81,159a49.75,49.75,0,0,0-89.16,30.36,31.78,31.78,0,1,0,0,63.55h136.1a31.78,31.78,0,0,0,0-63.55Z"/>
    <path class="cls-4" d="M613.2,201.74a31.57,31.57,0,0,0-44.5-28.8,47.17,47.17,0,0,0-84.55,28.8,30.13,30.13,0,1,0,0,60.25H613.2a30.13,30.13,0,1,0,0-60.25Z"/>
    <g class="cls-10">
      <g>
        <line class="cls-4" x1="299.1" y1="675.6" x2="572.99" y2="322.65"/>
        <line class="cls-4" x1="304.99" y1="676.66" x2="578.3" y2="324.45"/>
        <line class="cls-4" x1="310.88" y1="677.72" x2="583.62" y2="326.25"/>
        <line class="cls-4" x1="316.77" y1="678.77" x2="588.93" y2="328.04"/>
        <line class="cls-4" x1="322.66" y1="679.83" x2="594.25" y2="329.84"/>
        <line class="cls-4" x1="328.55" y1="680.89" x2="599.57" y2="331.64"/>
        <line class="cls-4" x1="334.44" y1="681.95" x2="604.88" y2="333.44"/>
        <line class="cls-4" x1="340.33" y1="683" x2="610.2" y2="335.24"/>
        <line class="cls-4" x1="346.22" y1="684.06" x2="615.51" y2="337.03"/>
        <line class="cls-4" x1="352.11" y1="685.12" x2="620.83" y2="338.83"/>
        <line class="cls-4" x1="358" y1="686.18" x2="626.14" y2="340.63"/>
        <line class="cls-4" x1="363.89" y1="687.24" x2="631.46" y2="342.43"/>
        <line class="cls-4" x1="369.78" y1="688.29" x2="636.77" y2="344.22"/>
        <line class="cls-4" x1="375.67" y1="689.35" x2="642.09" y2="346.02"/>
        <line class="cls-4" x1="381.56" y1="690.41" x2="647.4" y2="347.82"/>
        <line class="cls-4" x1="387.45" y1="691.47" x2="652.72" y2="349.62"/>
        <line class="cls-4" x1="393.34" y1="692.52" x2="658.04" y2="351.42"/>
        <line class="cls-4" x1="399.23" y1="693.58" x2="663.35" y2="353.21"/>
        <line class="cls-4" x1="405.12" y1="694.64" x2="668.67" y2="355.01"/>
        <line class="cls-4" x1="411.01" y1="695.7" x2="673.98" y2="356.81"/>
        <line class="cls-4" x1="416.9" y1="696.75" x2="679.3" y2="358.61"/>
        <line class="cls-4" x1="422.79" y1="697.81" x2="684.61" y2="360.41"/>
        <line class="cls-4" x1="428.68" y1="698.87" x2="689.93" y2="362.2"/>
        <line class="cls-4" x1="434.56" y1="699.93" x2="695.24" y2="364"/>
        <line class="cls-4" x1="440.45" y1="700.99" x2="700.56" y2="365.8"/>
        <line class="cls-4" x1="446.34" y1="702.04" x2="705.87" y2="367.6"/>
        <line class="cls-4" x1="452.23" y1="703.1" x2="711.19" y2="369.39"/>
        <line class="cls-4" x1="458.12" y1="704.16" x2="716.51" y2="371.19"/>
        <line class="cls-4" x1="464.01" y1="705.22" x2="721.82" y2="372.99"/>
        <line class="cls-4" x1="469.9" y1="706.27" x2="727.14" y2="374.79"/>
        <line class="cls-4" x1="475.79" y1="707.33" x2="732.45" y2="376.59"/>
        <line class="cls-4" x1="481.68" y1="708.39" x2="737.77" y2="378.38"/>
        <line class="cls-4" x1="487.57" y1="709.45" x2="743.08" y2="380.18"/>
        <line class="cls-4" x1="493.46" y1="710.5" x2="748.4" y2="381.98"/>
        <line class="cls-4" x1="499.35" y1="711.56" x2="753.71" y2="383.78"/>
        <line class="cls-4" x1="505.24" y1="712.62" x2="759.03" y2="385.57"/>
        <line class="cls-4" x1="511.13" y1="713.68" x2="764.34" y2="387.37"/>
        <line class="cls-4" x1="517.02" y1="714.73" x2="769.66" y2="389.17"/>
        <line class="cls-4" x1="522.91" y1="715.79" x2="774.98" y2="390.97"/>
        <line class="cls-4" x1="528.8" y1="716.85" x2="780.29" y2="392.77"/>
        <line class="cls-4" x1="534.69" y1="717.91" x2="785.61" y2="394.56"/>
        <line class="cls-4" x1="540.58" y1="718.97" x2="790.92" y2="396.36"/>
        <line class="cls-4" x1="546.47" y1="720.02" x2="796.24" y2="398.16"/>
        <line class="cls-4" x1="552.36" y1="721.08" x2="801.55" y2="399.96"/>
        <line class="cls-4" x1="558.25" y1="722.14" x2="806.87" y2="401.76"/>
        <line class="cls-4" x1="564.14" y1="723.2" x2="812.18" y2="403.55"/>
        <line class="cls-4" x1="570.03" y1="724.25" x2="817.5" y2="405.35"/>
        <line class="cls-4" x1="575.92" y1="725.31" x2="822.82" y2="407.15"/>
        <line class="cls-4" x1="581.81" y1="726.37" x2="828.13" y2="408.95"/>
        <line class="cls-4" x1="587.7" y1="727.43" x2="833.45" y2="410.74"/>
        <line class="cls-4" x1="593.59" y1="728.48" x2="838.76" y2="412.54"/>
        <line class="cls-4" x1="599.48" y1="729.54" x2="844.08" y2="414.34"/>
      </g>
    </g>
    <g class="cls-10">
      <g>
        <line class="cls-4" x1="299.1" y1="675.6" x2="572.99" y2="322.65"/>
        <line class="cls-4" x1="304.99" y1="676.66" x2="578.3" y2="324.45"/>
        <line class="cls-4" x1="310.88" y1="677.72" x2="583.62" y2="326.25"/>
        <line class="cls-4" x1="316.77" y1="678.77" x2="588.93" y2="328.04"/>
        <line class="cls-4" x1="322.66" y1="679.83" x2="594.25" y2="329.84"/>
        <line class="cls-4" x1="328.55" y1="680.89" x2="599.57" y2="331.64"/>
        <line class="cls-4" x1="334.44" y1="681.95" x2="604.88" y2="333.44"/>
        <line class="cls-4" x1="340.33" y1="683" x2="610.2" y2="335.24"/>
        <line class="cls-4" x1="346.22" y1="684.06" x2="615.51" y2="337.03"/>
        <line class="cls-4" x1="352.11" y1="685.12" x2="620.83" y2="338.83"/>
        <line class="cls-4" x1="358" y1="686.18" x2="626.14" y2="340.63"/>
        <line class="cls-4" x1="363.89" y1="687.24" x2="631.46" y2="342.43"/>
        <line class="cls-4" x1="369.78" y1="688.29" x2="636.77" y2="344.22"/>
        <line class="cls-4" x1="375.67" y1="689.35" x2="642.09" y2="346.02"/>
        <line class="cls-4" x1="381.56" y1="690.41" x2="647.4" y2="347.82"/>
        <line class="cls-4" x1="387.45" y1="691.47" x2="652.72" y2="349.62"/>
        <line class="cls-4" x1="393.34" y1="692.52" x2="658.04" y2="351.42"/>
        <line class="cls-4" x1="399.23" y1="693.58" x2="663.35" y2="353.21"/>
        <line class="cls-4" x1="405.12" y1="694.64" x2="668.67" y2="355.01"/>
        <line class="cls-4" x1="411.01" y1="695.7" x2="673.98" y2="356.81"/>
        <line class="cls-4" x1="416.9" y1="696.75" x2="679.3" y2="358.61"/>
        <line class="cls-4" x1="422.79" y1="697.81" x2="684.61" y2="360.41"/>
        <line class="cls-4" x1="428.68" y1="698.87" x2="689.93" y2="362.2"/>
        <line class="cls-4" x1="434.56" y1="699.93" x2="695.24" y2="364"/>
        <line class="cls-4" x1="440.45" y1="700.99" x2="700.56" y2="365.8"/>
        <line class="cls-4" x1="446.34" y1="702.04" x2="705.87" y2="367.6"/>
        <line class="cls-4" x1="452.23" y1="703.1" x2="711.19" y2="369.39"/>
        <line class="cls-4" x1="458.12" y1="704.16" x2="716.51" y2="371.19"/>
        <line class="cls-4" x1="464.01" y1="705.22" x2="721.82" y2="372.99"/>
        <line class="cls-4" x1="469.9" y1="706.27" x2="727.14" y2="374.79"/>
        <line class="cls-4" x1="475.79" y1="707.33" x2="732.45" y2="376.59"/>
        <line class="cls-4" x1="481.68" y1="708.39" x2="737.77" y2="378.38"/>
        <line class="cls-4" x1="487.57" y1="709.45" x2="743.08" y2="380.18"/>
        <line class="cls-4" x1="493.46" y1="710.5" x2="748.4" y2="381.98"/>
        <line class="cls-4" x1="499.35" y1="711.56" x2="753.71" y2="383.78"/>
        <line class="cls-4" x1="505.24" y1="712.62" x2="759.03" y2="385.57"/>
        <line class="cls-4" x1="511.13" y1="713.68" x2="764.34" y2="387.37"/>
        <line class="cls-4" x1="517.02" y1="714.73" x2="769.66" y2="389.17"/>
        <line class="cls-4" x1="522.91" y1="715.79" x2="774.98" y2="390.97"/>
        <line class="cls-4" x1="528.8" y1="716.85" x2="780.29" y2="392.77"/>
        <line class="cls-4" x1="534.69" y1="717.91" x2="785.61" y2="394.56"/>
        <line class="cls-4" x1="540.58" y1="718.97" x2="790.92" y2="396.36"/>
        <line class="cls-4" x1="546.47" y1="720.02" x2="796.24" y2="398.16"/>
        <line class="cls-4" x1="552.36" y1="721.08" x2="801.55" y2="399.96"/>
        <line class="cls-4" x1="558.25" y1="722.14" x2="806.87" y2="401.76"/>
        <line class="cls-4" x1="564.14" y1="723.2" x2="812.18" y2="403.55"/>
        <line class="cls-4" x1="570.03" y1="724.25" x2="817.5" y2="405.35"/>
        <line class="cls-4" x1="575.92" y1="725.31" x2="822.82" y2="407.15"/>
        <line class="cls-4" x1="581.81" y1="726.37" x2="828.13" y2="408.95"/>
        <line class="cls-4" x1="587.7" y1="727.43" x2="833.45" y2="410.74"/>
        <line class="cls-4" x1="593.59" y1="728.48" x2="838.76" y2="412.54"/>
        <line class="cls-4" x1="599.48" y1="729.54" x2="844.08" y2="414.34"/>
      </g>
    </g>
    <g class="cls-11">
      <g>
        <line class="cls-4" x1="645.5" y1="675.6" x2="919.39" y2="322.65"/>
        <line class="cls-4" x1="651.39" y1="676.66" x2="924.71" y2="324.45"/>
        <line class="cls-4" x1="657.28" y1="677.72" x2="930.02" y2="326.25"/>
        <line class="cls-4" x1="663.17" y1="678.77" x2="935.34" y2="328.04"/>
        <line class="cls-4" x1="669.06" y1="679.83" x2="940.65" y2="329.84"/>
        <line class="cls-4" x1="674.95" y1="680.89" x2="945.97" y2="331.64"/>
        <line class="cls-4" x1="680.84" y1="681.95" x2="951.28" y2="333.44"/>
        <line class="cls-4" x1="686.73" y1="683" x2="956.6" y2="335.24"/>
        <line class="cls-4" x1="692.62" y1="684.06" x2="961.91" y2="337.03"/>
        <line class="cls-4" x1="698.51" y1="685.12" x2="967.23" y2="338.83"/>
        <line class="cls-4" x1="704.4" y1="686.18" x2="972.55" y2="340.63"/>
        <line class="cls-4" x1="710.29" y1="687.24" x2="977.86" y2="342.43"/>
        <line class="cls-4" x1="716.18" y1="688.29" x2="983.18" y2="344.22"/>
        <line class="cls-4" x1="722.07" y1="689.35" x2="988.49" y2="346.02"/>
        <line class="cls-4" x1="727.96" y1="690.41" x2="993.81" y2="347.82"/>
        <line class="cls-4" x1="733.85" y1="691.47" x2="999.12" y2="349.62"/>
        <line class="cls-4" x1="739.74" y1="692.52" x2="1004.44" y2="351.42"/>
        <line class="cls-4" x1="745.63" y1="693.58" x2="1009.75" y2="353.21"/>
        <line class="cls-4" x1="751.52" y1="694.64" x2="1015.07" y2="355.01"/>
        <line class="cls-4" x1="757.41" y1="695.7" x2="1020.38" y2="356.81"/>
        <line class="cls-4" x1="763.3" y1="696.75" x2="1025.7" y2="358.61"/>
        <line class="cls-4" x1="769.19" y1="697.81" x2="1031.02" y2="360.41"/>
        <line class="cls-4" x1="775.08" y1="698.87" x2="1036.33" y2="362.2"/>
        <line class="cls-4" x1="780.97" y1="699.93" x2="1041.65" y2="364"/>
        <line class="cls-4" x1="786.86" y1="700.99" x2="1046.96" y2="365.8"/>
        <line class="cls-4" x1="792.75" y1="702.04" x2="1052.28" y2="367.6"/>
        <line class="cls-4" x1="798.64" y1="703.1" x2="1057.59" y2="369.39"/>
        <line class="cls-4" x1="804.53" y1="704.16" x2="1062.91" y2="371.19"/>
        <line class="cls-4" x1="810.42" y1="705.22" x2="1068.22" y2="372.99"/>
        <line class="cls-4" x1="816.31" y1="706.27" x2="1073.54" y2="374.79"/>
        <line class="cls-4" x1="822.2" y1="707.33" x2="1078.86" y2="376.59"/>
        <line class="cls-4" x1="828.09" y1="708.39" x2="1084.17" y2="378.38"/>
        <line class="cls-4" x1="833.98" y1="709.45" x2="1089.49" y2="380.18"/>
        <line class="cls-4" x1="839.87" y1="710.5" x2="1094.8" y2="381.98"/>
        <line class="cls-4" x1="845.76" y1="711.56" x2="1100.12" y2="383.78"/>
        <line class="cls-4" x1="851.65" y1="712.62" x2="1105.43" y2="385.57"/>
        <line class="cls-4" x1="857.54" y1="713.68" x2="1110.75" y2="387.37"/>
        <line class="cls-4" x1="863.43" y1="714.73" x2="1116.06" y2="389.17"/>
        <line class="cls-4" x1="869.32" y1="715.79" x2="1121.38" y2="390.97"/>
        <line class="cls-4" x1="875.2" y1="716.85" x2="1126.69" y2="392.77"/>
        <line class="cls-4" x1="881.09" y1="717.91" x2="1132.01" y2="394.56"/>
        <line class="cls-4" x1="886.98" y1="718.97" x2="1137.33" y2="396.36"/>
        <line class="cls-4" x1="892.87" y1="720.02" x2="1142.64" y2="398.16"/>
        <line class="cls-4" x1="898.76" y1="721.08" x2="1147.96" y2="399.96"/>
        <line class="cls-4" x1="904.65" y1="722.14" x2="1153.27" y2="401.76"/>
        <line class="cls-4" x1="910.54" y1="723.2" x2="1158.59" y2="403.55"/>
        <line class="cls-4" x1="916.43" y1="724.25" x2="1163.9" y2="405.35"/>
        <line class="cls-4" x1="922.32" y1="725.31" x2="1169.22" y2="407.15"/>
        <line class="cls-4" x1="928.21" y1="726.37" x2="1174.53" y2="408.95"/>
        <line class="cls-4" x1="934.1" y1="727.43" x2="1179.85" y2="410.74"/>
        <line class="cls-4" x1="939.99" y1="728.48" x2="1185.16" y2="412.54"/>
        <line class="cls-4" x1="945.88" y1="729.54" x2="1190.48" y2="414.34"/>
      </g>
    </g>
    <g class="cls-12">
      <g>
        <line class="cls-4" x1="196.54" y1="271.14" x2="549.49" y2="545.03"/>
        <line class="cls-4" x1="195.49" y1="277.03" x2="547.69" y2="550.35"/>
        <line class="cls-4" x1="194.43" y1="282.92" x2="545.9" y2="555.66"/>
        <line class="cls-4" x1="193.37" y1="288.81" x2="544.1" y2="560.98"/>
        <line class="cls-4" x1="192.31" y1="294.7" x2="542.3" y2="566.29"/>
        <line class="cls-4" x1="191.25" y1="300.59" x2="540.5" y2="571.61"/>
        <line class="cls-4" x1="190.2" y1="306.48" x2="538.71" y2="576.92"/>
        <line class="cls-4" x1="189.14" y1="312.37" x2="536.91" y2="582.24"/>
        <line class="cls-4" x1="188.08" y1="318.26" x2="535.11" y2="587.56"/>
        <line class="cls-4" x1="187.02" y1="324.15" x2="533.31" y2="592.87"/>
        <line class="cls-4" x1="185.97" y1="330.04" x2="531.51" y2="598.19"/>
        <line class="cls-4" x1="184.91" y1="335.93" x2="529.72" y2="603.5"/>
        <line class="cls-4" x1="183.85" y1="341.82" x2="527.92" y2="608.82"/>
        <line class="cls-4" x1="182.79" y1="347.71" x2="526.12" y2="614.13"/>
        <line class="cls-4" x1="181.74" y1="353.6" x2="524.32" y2="619.45"/>
        <line class="cls-4" x1="180.68" y1="359.49" x2="522.53" y2="624.76"/>
        <line class="cls-4" x1="179.62" y1="365.38" x2="520.73" y2="630.08"/>
        <line class="cls-4" x1="178.56" y1="371.27" x2="518.93" y2="635.39"/>
        <line class="cls-4" x1="177.51" y1="377.16" x2="517.13" y2="640.71"/>
        <line class="cls-4" x1="176.45" y1="383.05" x2="515.33" y2="646.03"/>
        <line class="cls-4" x1="175.39" y1="388.94" x2="513.54" y2="651.34"/>
        <line class="cls-4" x1="174.33" y1="394.83" x2="511.74" y2="656.66"/>
        <line class="cls-4" x1="173.27" y1="400.72" x2="509.94" y2="661.97"/>
        <line class="cls-4" x1="172.22" y1="406.61" x2="508.14" y2="667.29"/>
        <line class="cls-4" x1="171.16" y1="412.5" x2="506.35" y2="672.6"/>
        <line class="cls-4" x1="170.1" y1="418.39" x2="504.55" y2="677.92"/>
        <line class="cls-4" x1="169.04" y1="424.28" x2="502.75" y2="683.23"/>
        <line class="cls-4" x1="167.99" y1="430.17" x2="500.95" y2="688.55"/>
        <line class="cls-4" x1="166.93" y1="436.06" x2="499.15" y2="693.86"/>
        <line class="cls-4" x1="165.87" y1="441.95" x2="497.36" y2="699.18"/>
        <line class="cls-4" x1="164.81" y1="447.84" x2="495.56" y2="704.5"/>
        <line class="cls-4" x1="163.76" y1="453.73" x2="493.76" y2="709.81"/>
        <line class="cls-4" x1="162.7" y1="459.62" x2="491.96" y2="715.13"/>
        <line class="cls-4" x1="161.64" y1="465.51" x2="490.16" y2="720.44"/>
        <line class="cls-4" x1="160.58" y1="471.4" x2="488.37" y2="725.76"/>
        <line class="cls-4" x1="159.52" y1="477.29" x2="486.57" y2="731.07"/>
        <line class="cls-4" x1="158.47" y1="483.18" x2="484.77" y2="736.39"/>
        <line class="cls-4" x1="157.41" y1="489.07" x2="482.97" y2="741.7"/>
        <line class="cls-4" x1="156.35" y1="494.96" x2="481.18" y2="747.02"/>
        <line class="cls-4" x1="155.29" y1="500.85" x2="479.38" y2="752.33"/>
        <line class="cls-4" x1="154.24" y1="506.74" x2="477.58" y2="757.65"/>
        <line class="cls-4" x1="153.18" y1="512.63" x2="475.78" y2="762.97"/>
        <line class="cls-4" x1="152.12" y1="518.52" x2="473.98" y2="768.28"/>
        <line class="cls-4" x1="151.06" y1="524.4" x2="472.19" y2="773.6"/>
        <line class="cls-4" x1="150.01" y1="530.29" x2="470.39" y2="778.91"/>
        <line class="cls-4" x1="148.95" y1="536.18" x2="468.59" y2="784.23"/>
        <line class="cls-4" x1="147.89" y1="542.07" x2="466.79" y2="789.54"/>
        <line class="cls-4" x1="146.83" y1="547.96" x2="465" y2="794.86"/>
        <line class="cls-4" x1="145.77" y1="553.85" x2="463.2" y2="800.17"/>
        <line class="cls-4" x1="144.72" y1="559.74" x2="461.4" y2="805.49"/>
        <line class="cls-4" x1="143.66" y1="565.63" x2="459.6" y2="810.81"/>
        <line class="cls-4" x1="142.6" y1="571.52" x2="457.8" y2="816.12"/>
      </g>
    </g>
    <g>
      <path class="cls-5" d="M198,661.53V640.07h6.7a12.78,12.78,0,0,1,6.36,1.24,4.45,4.45,0,0,1,2.09,4.15,7,7,0,0,1-.06.92,5.54,5.54,0,0,1-.26,1,4.33,4.33,0,0,1-.54,1.05,4.58,4.58,0,0,1-.94.92,4.64,4.64,0,0,1-1.41.69,5.25,5.25,0,0,1,3.05,1.85,6,6,0,0,1-1.09,8,9.79,9.79,0,0,1-5.94,1.6Zm4-12.6h3.4q3.94,0,3.94-3a2.42,2.42,0,0,0-1.13-2.32,7.8,7.8,0,0,0-3.61-.63H202Zm0,9.73h3.45c3,0,4.57-1.2,4.57-3.58a2.91,2.91,0,0,0-1.15-2.59,6.23,6.23,0,0,0-3.53-.79H202Z"/>
      <path class="cls-5" d="M221.4,661.83a5.25,5.25,0,0,1-3.63-1.23,4.56,4.56,0,0,1-1.38-3.57,4.28,4.28,0,0,1,1.64-3.71,9.91,9.91,0,0,1,4.95-1.53l1-.12,1.19-.12,1-.1v-.85a2.88,2.88,0,0,0-.68-2.13,2.78,2.78,0,0,0-2-.67,14.26,14.26,0,0,0-4.85,1.1l-.48-1.33c-.31-.86-.48-1.3-.48-1.32A15.45,15.45,0,0,1,223.8,645c2.17,0,3.74.47,4.73,1.42S230,648.91,230,651v10.51h-2.84s-.12-.37-.33-1-.3-.94-.3-1a9,9,0,0,1-2.35,1.72A6.4,6.4,0,0,1,221.4,661.83Zm1-2.72a4.17,4.17,0,0,0,2.32-.64,3.69,3.69,0,0,0,1.41-1.54v-3.11l-.77.06-.78.06a8.1,8.1,0,0,0-3.42.88,2.36,2.36,0,0,0-1.08,2.17,2,2,0,0,0,.6,1.57A2.44,2.44,0,0,0,222.44,659.11Z"/>
      <path class="cls-5" d="M239.73,661.83a5.94,5.94,0,0,1-4.95-2.31,9.79,9.79,0,0,1-1.8-6.18,9.45,9.45,0,0,1,1.8-6,5.93,5.93,0,0,1,4.94-2.28,5.15,5.15,0,0,1,4.85,2.43,26.52,26.52,0,0,1-.15-2.76v-5.21l3.84-.24v22.28h-3.32l-.43-2.2c-.17.26-.32.49-.46.68a5,5,0,0,1-.62.66,3.67,3.67,0,0,1-.89.6,6,6,0,0,1-1.2.39A6.69,6.69,0,0,1,239.73,661.83Zm.91-2.91q3.87,0,3.93-5.26a7.41,7.41,0,0,0-1-4.34,3.45,3.45,0,0,0-3-1.36,3.26,3.26,0,0,0-2.76,1.39,8.6,8.6,0,0,0,0,8.16A3.29,3.29,0,0,0,240.64,658.92Z"/>
      <path class="cls-5" d="M258.13,661.53V640.07h6.21a18.08,18.08,0,0,1,5,.64,10.73,10.73,0,0,1,3.83,1.94,8.52,8.52,0,0,1,2.47,3.34,12.17,12.17,0,0,1,.85,4.73q0,5.19-3.13,8t-8.69,2.81Zm4-3.18H265a7.53,7.53,0,0,0,5.59-1.93,7.63,7.63,0,0,0,1.92-5.62q0-3.94-2-5.75c-1.32-1.19-3.3-1.79-6-1.79H262.1Z"/>
      <path class="cls-5" d="M283.62,661.83A5.24,5.24,0,0,1,280,660.6a4.53,4.53,0,0,1-1.39-3.57,4.3,4.3,0,0,1,1.64-3.71,10,10,0,0,1,4.95-1.53l1-.12,1.19-.12,1-.1v-.85a2.88,2.88,0,0,0-.67-2.13,2.8,2.8,0,0,0-2.05-.67,14.21,14.21,0,0,0-4.85,1.1l-.49-1.33-.48-1.32A15.52,15.52,0,0,1,286,645q3.25,0,4.73,1.42t1.48,4.57v10.51h-2.84l-.32-1a10,10,0,0,1-.31-1,8.82,8.82,0,0,1-2.35,1.72A6.4,6.4,0,0,1,283.62,661.83Zm1-2.72a4.14,4.14,0,0,0,2.32-.64,3.78,3.78,0,0,0,1.42-1.54v-3.11l-.77.06-.79.06a8.05,8.05,0,0,0-3.41.88,2.36,2.36,0,0,0-1.08,2.17,2,2,0,0,0,.6,1.57A2.43,2.43,0,0,0,284.66,659.11Z"/>
      <path class="cls-5" d="M302.32,661.75a8.24,8.24,0,0,1-2.74-.39,3.53,3.53,0,0,1-1.7-1.23,5.13,5.13,0,0,1-.87-2,12.34,12.34,0,0,1-.26-2.8v-7.6h-2.64l.15-2.08,2.75-.25,1.23-4.37h2.35v4.38h4v2.33h-4v7.67a4.86,4.86,0,0,0,.52,2.61,2.21,2.21,0,0,0,1.95.78,11.47,11.47,0,0,0,1.79-.15l.1,2.75-.36.07-.63.12-.77.09C302.88,661.73,302.59,661.75,302.32,661.75Z"/>
      <path class="cls-5" d="M311.83,661.83a5.29,5.29,0,0,1-3.63-1.23,4.56,4.56,0,0,1-1.38-3.57,4.3,4.3,0,0,1,1.64-3.71,9.91,9.91,0,0,1,5-1.53l1-.12,1.19-.12,1-.1v-.85a2.88,2.88,0,0,0-.67-2.13,2.8,2.8,0,0,0-2.05-.67,14.21,14.21,0,0,0-4.85,1.1l-.49-1.33-.48-1.32a15.45,15.45,0,0,1,6.15-1.22q3.25,0,4.73,1.42t1.48,4.57v10.51H317.6l-.32-1a10,10,0,0,1-.31-1,8.82,8.82,0,0,1-2.35,1.72A6.4,6.4,0,0,1,311.83,661.83Zm1-2.72a4.14,4.14,0,0,0,2.32-.64,3.69,3.69,0,0,0,1.41-1.54v-3.11l-.76.06-.79.06a8.05,8.05,0,0,0-3.41.88,2.36,2.36,0,0,0-1.08,2.17,2,2,0,0,0,.6,1.57A2.43,2.43,0,0,0,312.87,659.11Z"/>
    </g>
    <g>
      <path class="cls-5" d="M500.47,661.83a9.94,9.94,0,0,1-7.67-3q-2.76-3-2.76-8.1a12.33,12.33,0,0,1,1.29-5.75,9.24,9.24,0,0,1,3.79-3.87,12,12,0,0,1,5.92-1.39,12.8,12.8,0,0,1,6.71,1.68l-1.29,3a11.27,11.27,0,0,0-5.35-1.43,6.44,6.44,0,0,0-5.11,2.11,8.36,8.36,0,0,0-1.86,5.74,9,9,0,0,0,1.65,5.7,5.83,5.83,0,0,0,4.85,2.09,10.23,10.23,0,0,0,3.72-.64v-5h-4.49l0-3.12h8.2v10.35a23.76,23.76,0,0,1-3.77,1.22A18.1,18.1,0,0,1,500.47,661.83Z"/>
      <path class="cls-5" d="M512,661.53v-16.1h3.22l.5,2.46a5.08,5.08,0,0,1,4.58-2.54,7.22,7.22,0,0,1,1,.06l-.06,3.21a8,8,0,0,0-1.22-.09,4.14,4.14,0,0,0-3.17,1.13,4.43,4.43,0,0,0-1,3.14v8.73Z"/>
      <path class="cls-5" d="M530.82,661.83a8,8,0,0,1-6-2.23,8.51,8.51,0,0,1-2.16-6.17,8.79,8.79,0,0,1,2-6.11A7.11,7.11,0,0,1,530.2,645a6.57,6.57,0,0,1,5.17,2.08,8.07,8.07,0,0,1,1.84,5.52c0,.17,0,.44,0,.81s0,.64,0,.82H526.48a5.09,5.09,0,0,0,1.24,3.49A4.27,4.27,0,0,0,531,659a10.21,10.21,0,0,0,5.06-1.37l.55,2.72A10.72,10.72,0,0,1,530.82,661.83Zm-4.26-10h7a4.51,4.51,0,0,0-.9-3,3,3,0,0,0-2.47-1.06,3.36,3.36,0,0,0-2.5,1A4.6,4.6,0,0,0,526.56,651.84Z"/>
      <path class="cls-5" d="M544.14,661.83a5.25,5.25,0,0,1-3.63-1.23,4.56,4.56,0,0,1-1.38-3.57,4.28,4.28,0,0,1,1.64-3.71,9.91,9.91,0,0,1,5-1.53l1-.12,1.19-.12,1-.1v-.85a2.88,2.88,0,0,0-.68-2.13,2.78,2.78,0,0,0-2-.67,14.26,14.26,0,0,0-4.85,1.1l-.48-1.33-.48-1.32a15.45,15.45,0,0,1,6.15-1.22c2.17,0,3.74.47,4.73,1.42s1.48,2.46,1.48,4.57v10.51h-2.84l-.32-1a10,10,0,0,1-.31-1,9,9,0,0,1-2.35,1.72A6.4,6.4,0,0,1,544.14,661.83Zm1-2.72a4.17,4.17,0,0,0,2.32-.64,3.69,3.69,0,0,0,1.41-1.54v-3.11l-.77.06-.78.06a8.05,8.05,0,0,0-3.41.88,2.35,2.35,0,0,0-1.09,2.17,2,2,0,0,0,.6,1.57A2.44,2.44,0,0,0,545.18,659.11Z"/>
      <path class="cls-5" d="M562.83,661.75a8.22,8.22,0,0,1-2.73-.39,3.51,3.51,0,0,1-1.71-1.23,5.13,5.13,0,0,1-.87-2,13,13,0,0,1-.25-2.8v-7.6h-2.64l.14-2.08,2.76-.25,1.23-4.37h2.34v4.38h4v2.33h-4v7.67a4.85,4.85,0,0,0,.53,2.61,2.19,2.19,0,0,0,2,.78,11.57,11.57,0,0,0,1.79-.15l.1,2.75-.36.07-.63.12-.77.09C563.4,661.73,563.1,661.75,562.83,661.75Z"/>
      <path class="cls-5" d="M574.24,661.53V640.07h4.69l6.49,15.49L592,640.07h4.63v21.46h-3.66V650.92l.12-6.08-.54,1.61L587,660.06h-3.4l-5.37-13.68-.54-1.61.13,6.21v10.55Z"/>
      <path class="cls-5" d="M607.66,661.83a7.13,7.13,0,0,1-5.62-2.31,10.16,10.16,0,0,1,0-12.24,7.42,7.42,0,0,1,5.78-2.25,7.17,7.17,0,0,1,5.65,2.3,10.15,10.15,0,0,1,0,12.23A7.42,7.42,0,0,1,607.66,661.83Zm.11-2.91a3.34,3.34,0,0,0,2.93-1.42,9,9,0,0,0,0-8.16,3.38,3.38,0,0,0-3-1.41,3.34,3.34,0,0,0-2.94,1.42,7.08,7.08,0,0,0-1,4.09,7,7,0,0,0,1,4.06A3.37,3.37,0,0,0,607.77,658.92Z"/>
      <path class="cls-5" d="M624.54,661.83a5.94,5.94,0,0,1-4.95-2.31,9.79,9.79,0,0,1-1.8-6.18,9.45,9.45,0,0,1,1.8-6,5.93,5.93,0,0,1,4.94-2.28,5.15,5.15,0,0,1,4.85,2.43,26.52,26.52,0,0,1-.15-2.76v-5.21l3.84-.24v22.28h-3.32l-.43-2.2c-.17.26-.32.49-.46.68a5,5,0,0,1-.62.66,3.67,3.67,0,0,1-.89.6,6,6,0,0,1-1.2.39A6.69,6.69,0,0,1,624.54,661.83Zm.91-2.91q3.87,0,3.93-5.26a7.41,7.41,0,0,0-1-4.34,3.45,3.45,0,0,0-3-1.36,3.26,3.26,0,0,0-2.76,1.39,8.6,8.6,0,0,0,0,8.16A3.29,3.29,0,0,0,625.45,658.92Z"/>
      <path class="cls-5" d="M644.27,661.83a8,8,0,0,1-6-2.23,8.51,8.51,0,0,1-2.16-6.17,8.79,8.79,0,0,1,2-6.11,7.08,7.08,0,0,1,5.55-2.29,6.55,6.55,0,0,1,5.16,2.08,8,8,0,0,1,1.84,5.52c0,.17,0,.44,0,.81s0,.64,0,.82h-10.7a5.08,5.08,0,0,0,1.23,3.49,4.27,4.27,0,0,0,3.25,1.24,10.22,10.22,0,0,0,5.07-1.37l.54,2.72A10.69,10.69,0,0,1,644.27,661.83Zm-4.26-10h7a4.56,4.56,0,0,0-.89-3,3.06,3.06,0,0,0-2.48-1.06,3.38,3.38,0,0,0-2.5,1A4.7,4.7,0,0,0,640,651.84Z"/>
      <path class="cls-5" d="M659.25,661.75a8.2,8.2,0,0,1-2.74-.39,3.54,3.54,0,0,1-1.72-1.24,5.08,5.08,0,0,1-.88-2,14,14,0,0,1-.25-2.92V639.49l3.84-.24v15.86a5.83,5.83,0,0,0,.51,2.94,2.23,2.23,0,0,0,2,.77,14.86,14.86,0,0,0,1.86-.16l.1,2.73-.36.08-.65.12c-.21,0-.48.07-.8.1A7.28,7.28,0,0,1,659.25,661.75Z"/>
    </g>
    <g>
      <path class="cls-5" d="M819.89,661.53V640.07h6.69a12.78,12.78,0,0,1,6.36,1.24,4.44,4.44,0,0,1,2.1,4.15,7,7,0,0,1-.06.92,4.93,4.93,0,0,1-.27,1,3.72,3.72,0,0,1-.54,1.05,4.34,4.34,0,0,1-.94.92,4.69,4.69,0,0,1-1.4.69,5.22,5.22,0,0,1,3,1.85,5.35,5.35,0,0,1,1.06,3.38,5.42,5.42,0,0,1-2.15,4.63,9.79,9.79,0,0,1-5.94,1.6Zm4-12.6h3.4c2.62,0,3.94-1,3.94-3a2.41,2.41,0,0,0-1.14-2.32,7.77,7.77,0,0,0-3.61-.63h-2.59Zm0,9.73h3.44c3.05,0,4.57-1.2,4.57-3.58a2.93,2.93,0,0,0-1.14-2.59,6.25,6.25,0,0,0-3.53-.79h-3.34Z"/>
      <path class="cls-5" d="M843.24,661.83a5.29,5.29,0,0,1-3.63-1.23,4.56,4.56,0,0,1-1.38-3.57,4.3,4.3,0,0,1,1.64-3.71,9.91,9.91,0,0,1,5-1.53l1-.12,1.19-.12,1-.1v-.85a2.88,2.88,0,0,0-.67-2.13,2.8,2.8,0,0,0-2.05-.67,14.21,14.21,0,0,0-4.85,1.1l-.49-1.33-.48-1.32a15.48,15.48,0,0,1,6.15-1.22q3.25,0,4.73,1.42t1.48,4.57v10.51H849l-.32-1a10,10,0,0,1-.31-1,8.82,8.82,0,0,1-2.35,1.72A6.4,6.4,0,0,1,843.24,661.83Zm1-2.72a4.14,4.14,0,0,0,2.32-.64,3.78,3.78,0,0,0,1.42-1.54v-3.11l-.77.06-.79.06a8.05,8.05,0,0,0-3.41.88A2.36,2.36,0,0,0,842,657a2,2,0,0,0,.6,1.57A2.43,2.43,0,0,0,844.28,659.11Z"/>
      <path class="cls-5" d="M861.58,661.83a5.93,5.93,0,0,1-5-2.31,9.79,9.79,0,0,1-1.8-6.18,9.45,9.45,0,0,1,1.79-6,6,6,0,0,1,4.94-2.28q3.44,0,4.85,2.43c-.09-1-.14-1.88-.14-2.76v-5.21l3.83-.24v22.28h-3.32l-.43-2.2a7.24,7.24,0,0,1-.46.68,5,5,0,0,1-.62.66,3.48,3.48,0,0,1-.89.6,5.63,5.63,0,0,1-1.2.39A6.6,6.6,0,0,1,861.58,661.83Zm.91-2.91c2.58,0,3.88-1.75,3.92-5.26a7.5,7.5,0,0,0-1-4.34,3.48,3.48,0,0,0-3-1.36,3.26,3.26,0,0,0-2.76,1.39,8.6,8.6,0,0,0,0,8.16A3.31,3.31,0,0,0,862.49,658.92Z"/>
      <path class="cls-5" d="M879.92,661.53V640h7.15a12.92,12.92,0,0,1,4.34.65,5.82,5.82,0,0,1,2.85,2.12,6.13,6.13,0,0,1,1,3.67,8.72,8.72,0,0,1-.4,2.73,5.54,5.54,0,0,1-3.86,3.67,12.87,12.87,0,0,1-4,.53c-1.33,0-2.4,0-3.23-.12v8.27Zm6.73-11a8.73,8.73,0,0,0,2.11-.23,4.35,4.35,0,0,0,1.41-.6,2.82,2.82,0,0,0,.81-.91,3.38,3.38,0,0,0,.39-1,5.69,5.69,0,0,0,.1-1.14,3.23,3.23,0,0,0-1.15-2.69,5,5,0,0,0-3.22-.92h-3.26v7.51C884,650.5,884.89,650.51,886.65,650.51Z"/>
      <path class="cls-5" d="M897.75,661.53v-16.1H901l.5,2.46a5.08,5.08,0,0,1,4.58-2.54,7.22,7.22,0,0,1,1,.06l-.06,3.21a8,8,0,0,0-1.22-.09,4.14,4.14,0,0,0-3.17,1.13,4.43,4.43,0,0,0-1,3.14v8.73Z"/>
      <path class="cls-5" d="M916.57,661.83a8,8,0,0,1-6-2.23,8.51,8.51,0,0,1-2.16-6.17,8.84,8.84,0,0,1,2-6.11A7.11,7.11,0,0,1,916,645a6.57,6.57,0,0,1,5.17,2.08,8.07,8.07,0,0,1,1.84,5.52c0,.17,0,.44,0,.81s0,.64,0,.82H912.23a5.09,5.09,0,0,0,1.24,3.49,4.27,4.27,0,0,0,3.25,1.24,10.21,10.21,0,0,0,5.06-1.37l.55,2.72A10.69,10.69,0,0,1,916.57,661.83Zm-4.26-10h7a4.51,4.51,0,0,0-.9-3,3,3,0,0,0-2.47-1.06,3.36,3.36,0,0,0-2.5,1A4.6,4.6,0,0,0,912.31,651.84Z"/>
      <path class="cls-5" d="M932,661.83a5.93,5.93,0,0,1-5-2.31,9.79,9.79,0,0,1-1.8-6.18,9.51,9.51,0,0,1,1.79-6,6,6,0,0,1,5-2.28,5.17,5.17,0,0,1,4.85,2.43,26.52,26.52,0,0,1-.15-2.76v-5.21l3.84-.24v22.28h-3.33l-.42-2.2c-.17.26-.32.49-.46.68a4.59,4.59,0,0,1-.63.66,3.43,3.43,0,0,1-.88.6,6,6,0,0,1-1.2.39A6.74,6.74,0,0,1,932,661.83Zm.91-2.91q3.87,0,3.93-5.26a7.49,7.49,0,0,0-1-4.34,3.45,3.45,0,0,0-3-1.36,3.24,3.24,0,0,0-2.76,1.39,8.52,8.52,0,0,0,0,8.16A3.28,3.28,0,0,0,932.87,658.92Z"/>
      <path class="cls-5" d="M944.3,643.08V639.8h3.85v3.28Zm0,18.45v-16.1h3.84v16.1Z"/>
      <path class="cls-5" d="M959,661.83a7.48,7.48,0,0,1-5.74-2.19,8.83,8.83,0,0,1-2.06-6.29,8.37,8.37,0,0,1,2.16-6.14A7.67,7.67,0,0,1,959,645a8.83,8.83,0,0,1,4.77,1.22l-.9,2.74a8,8,0,0,0-3.71-1,3.72,3.72,0,0,0-3.07,1.39A6.34,6.34,0,0,0,955,653.4a6.52,6.52,0,0,0,1.11,4.1,3.72,3.72,0,0,0,3.12,1.4,7.42,7.42,0,0,0,4.06-1.24l.37,2.91a7,7,0,0,1-2.1,1A9.76,9.76,0,0,1,959,661.83Z"/>
      <path class="cls-5" d="M973.57,661.75a8.22,8.22,0,0,1-2.73-.39,3.51,3.51,0,0,1-1.71-1.23,5.13,5.13,0,0,1-.87-2,12.94,12.94,0,0,1-.26-2.8v-7.6h-2.63l.14-2.08,2.76-.25,1.23-4.37h2.34v4.38h4v2.33h-4v7.67a4.85,4.85,0,0,0,.53,2.61,2.19,2.19,0,0,0,2,.78,11.45,11.45,0,0,0,1.78-.15l.11,2.75-.36.07-.63.12-.77.09C974.14,661.73,973.84,661.75,973.57,661.75Z"/>
      <path class="cls-5" d="M978.62,643.08V639.8h3.85v3.28Zm0,18.45v-16.1h3.83v16.1Z"/>
      <path class="cls-5" d="M993.13,661.83a7.15,7.15,0,0,1-5.63-2.31,10.16,10.16,0,0,1,0-12.24,7.45,7.45,0,0,1,5.79-2.25,7.18,7.18,0,0,1,5.65,2.3,10.15,10.15,0,0,1,0,12.23A7.42,7.42,0,0,1,993.13,661.83Zm.1-2.91a3.31,3.31,0,0,0,2.93-1.42,9,9,0,0,0,0-8.16,3.36,3.36,0,0,0-3-1.41,3.33,3.33,0,0,0-2.93,1.42,8.88,8.88,0,0,0,0,8.15A3.38,3.38,0,0,0,993.23,658.92Z"/>
      <path class="cls-5" d="M1004,661.53v-16.1h3.1l.42,2A7.61,7.61,0,0,1,1013,645a5.29,5.29,0,0,1,4.22,1.62,7,7,0,0,1,1.39,4.7v10.18h-3.85v-9.72a5.59,5.59,0,0,0-.63-2.91,2.41,2.41,0,0,0-2.21-1,4.31,4.31,0,0,0-2.28.64,3.82,3.82,0,0,0-1.5,1.6,16.62,16.62,0,0,0-.28,3.52v7.84Z"/>
    </g>
  </g>
</svg>
